<svg xmlns="http://www.w3.org/2000/svg" viewBox="60 50 1365 401" width="1365" height="401">
  <rect x="60" y="50" width="1365" height="401" fill="#000000"/>
  <!-- ===== Icon (left) — UNCHANGED ===== -->
  <g transform="translate(120,110)">
    <g fill="#4F46E5">
      <rect x="0" y="0"   width="113" height="37"/>
      <rect x="0" y="0"   width="34"  height="108"/>
    </g>
    <g fill="#8B5CF6">
      <rect x="0" y="182" width="34"  height="99"/>
      <rect x="0" y="251" width="113" height="30"/>
    </g>
    <g fill="#C4B5FD">
      <rect x="266" y="182" width="34"  height="99"/>
      <rect x="184" y="251" width="116" height="30"/>
    </g>
    <rect x="177" y="131" width="123" height="29" fill="#DDD6FE"/>
  </g>
  <!-- ===== Vertical divider — UNCHANGED ===== -->
  <rect x="485" y="120" width="2" height="270" fill="#ffffff" opacity="0.6"/>
  <!-- ===== Wordmark — Inter, outlined ===== -->
<g transform="translate(545.00,290.00) scale(0.087891,-0.087891)"><path d="M797.0 -20Q585.0 -20 424.0 72.5Q263.0 165 172.5 336.0Q82.0 507 82.0 742Q82.0 986 177.5 1157.5Q273.0 1329 433.5 1419.5Q594.0 1510 793.0 1510Q922.0 1510 1032.5 1473.0Q1143.0 1436 1229.5 1368.0Q1316.0 1300 1369.5 1207.5Q1423.0 1115 1437.0 1004H1080.0Q1067.0 1050 1042.5 1086.5Q1018.0 1123 982.0 1148.5Q946.0 1174 900.5 1187.0Q855.0 1200 799.0 1200Q691.0 1200 610.5 1147.0Q530.0 1094 486.5 992.5Q443.0 891 443.0 747Q443.0 602 485.5 500.0Q528.0 398 608.0 344.0Q688.0 290 800.0 290Q901.0 290 970.5 323.0Q1040.0 356 1076.0 417.5Q1112.0 479 1112.0 562L1179.0 553H814.0V812H1453.0V616Q1453.0 417 1369.0 274.5Q1285.0 132 1136.5 56.0Q988.0 -20 797.0 -20ZM1645.6222222222223 0V1490H2679.6222222222223V1202H1998.6222222222223V894H2625.6222222222223V612H1998.6222222222223V288H2678.6222222222223V0ZM2883.2444444444445 0V1490H3236.2444444444445V905H3831.2444444444445V1490H4183.2444444444445V0H3831.2444444444445V617H3236.2444444444445V0Z" fill="#FFFFFF"/></g>
<g transform="translate(547.00,378.00) scale(0.026367,-0.026367)"><path d="M791 -20C1152 -20 1413 216 1413 593V764H825V576H1190C1185 338 1028 188 792 188C529 188 339 386 339 745C339 1105 532 1302 783 1302C979 1302 1112 1193 1166 1019H1400C1350 1309 1102 1510 781 1510C395 1510 113 1220 113 744C113 273 386 -20 791 -20ZM2290 -23C2646 -23 2882 199 2882 512V1490H2653V531C2653 330 2514 184 2290 184C2065 184 1924 330 1924 531V1490H1696V512C1696 199 1931 -23 2290 -23ZM3058 0H3305L3438 393H4024L4161 0H4408L3868 1490H3588ZM3503 583 3586 829C3623 943 3669 1098 3727 1311C3786 1100 3831 948 3871 829L3957 583ZM4624 0H4852V563H5156C5160 563 5165 563 5169 563L5471 0H5730L5402 602C5583 670 5674 822 5674 1022C5674 1297 5503 1490 5158 1490H4624ZM4852 758V1295H5132C5352 1295 5443 1190 5443 1022C5443 855 5352 758 5134 758ZM6436 0C6889 0 7152 281 7152 747C7152 1210 6889 1490 6450 1490H5951V0ZM6179 200V1290H6435C6760 1290 6928 1097 6928 747C6928 394 6760 200 6423 200ZM7975 0H8919V196H8203V655H8863V850H8203V1294H8913V1490H7975ZM9635 0H9914L10446 1490H10199L9917 661C9880 548 9834 395 9776 183C9717 391 9670 548 9632 661L9342 1490H9096ZM10401 0H10648L10781 393H11367L11504 0H11751L11211 1490H10931ZM10846 583 10929 829C10966 943 11012 1098 11070 1311C11129 1100 11174 948 11214 829L11300 583ZM11967 0H12870V196H12195V1490H11967ZM13719 -23C14075 -23 14311 199 14311 512V1490H14082V531C14082 330 13943 184 13719 184C13494 184 13353 330 13353 531V1490H13125V512C13125 199 13360 -23 13719 -23ZM14487 0H14734L14867 393H15453L15590 0H15837L15297 1490H15017ZM14932 583 15015 829C15052 943 15098 1098 15156 1311C15215 1100 15260 948 15300 829L15386 583ZM15801 1294H16266V0H16495V1294H16958V1490H15801ZM17441 1490H17213V0H17441ZM18392 -20C18778 -20 19063 268 19063 744C19063 1222 18778 1510 18392 1510C18005 1510 17719 1222 17719 744C17719 268 18005 -20 18392 -20ZM18392 188C18136 188 17945 384 17945 744C17945 1105 18136 1302 18392 1302C18646 1302 18837 1106 18837 744C18837 384 18646 188 18392 188ZM19341 0H19572V795C19572 872 19564 1026 19555 1213C19663 1013 19720 910 19793 793L20296 0H20560V1490H20329V642C20329 556 20333 417 20344 273C20278 416 20211 529 20165 603L19604 1490H19341ZM21436 0H21664V664H22402V0H22631V1490H22402V860H21664V1490H21436ZM22847 0H23094L23227 393H23813L23950 0H24197L23657 1490H23377ZM23292 583 23375 829C23412 943 23458 1098 23516 1311C23575 1100 23620 948 23660 829L23746 583ZM24413 0H24641V563H24945C24949 563 24954 563 24958 563L25260 0H25519L25191 602C25372 670 25463 822 25463 1022C25463 1297 25292 1490 24947 1490H24413ZM24641 758V1295H24921C25141 1295 25232 1190 25232 1022C25232 855 25141 758 24923 758ZM25740 0H25971V795C25971 872 25963 1026 25954 1213C26062 1013 26119 910 26192 793L26695 0H26959V1490H26728V642C26728 556 26732 417 26743 273C26677 416 26610 529 26564 603L26003 1490H25740ZM27289 0H28233V196H27517V655H28177V850H27517V1294H28227V1490H27289ZM29024 -25C29374 -25 29576 159 29576 412C29576 681 29337 783 29147 832L29002 870C28888 900 28734 953 28734 1094C28734 1220 28848 1312 29029 1312C29198 1312 29319 1234 29334 1098H29556C29549 1335 29340 1510 29034 1510C28734 1510 28506 1339 28506 1081C28506 877 28650 752 28894 687L29068 639C29228 596 29351 545 29351 415C29351 271 29212 175 29023 175C28851 175 28707 251 28694 414H28465C28479 142 28689 -25 29024 -25ZM30347 -25C30697 -25 30899 159 30899 412C30899 681 30660 783 30470 832L30325 870C30211 900 30057 953 30057 1094C30057 1220 30171 1312 30352 1312C30521 1312 30642 1234 30657 1098H30879C30872 1335 30663 1510 30357 1510C30057 1510 29829 1339 29829 1081C29829 877 29973 752 30217 687L30391 639C30551 596 30674 545 30674 415C30674 271 30535 175 30346 175C30174 175 30030 251 30017 414H29788C29802 142 30012 -25 30347 -25Z" fill="#8E8AA6"/></g>
</svg>